# xmcd
#
# Track frame offsets: 
#        150
#        17874
#        36697
#        53091
#        71605
#        89496
#        107561
#        125422
#        144204
#        162971
#        181136
#        198888
#        216171
#        234904
#        253396
#
# Disc length: 3621 seconds
#
# Revision: 0
# Processed by: cddbd v1.5PL3 Copyright (c) Steve Scherf et al.
# Submitted via: ExactAudioCopy v0.95a5
#
DISCID=d40e230f
DTITLE=Carlisle, Belinda - The Best Of
DYEAR=1900
DGENRE=Terror
TTITLE0=Heaven Is A Place On Earth
TTITLE1=The Same Thing
TTITLE2=Circle In The Sand
TTITLE3=Leave A Light On
TTITLE4=Little Black Book
TTITLE5=Summer Rain
TTITLE6=Vision Of You
TTITLE7=Live Your Life Be Free
TTITLE8=I Get Weak
TTITLE9=La Luna
TTITLE10=I Plead Insanity
TTITLE11=World Without You
TTITLE12=Do You Feel Like I Feel
TTITLE13=Half The World
TTITLE14=Runaway Horses
EXTD=
EXTT0=
EXTT1=
EXTT2=
EXTT3=
EXTT4=
EXTT5=
EXTT6=
EXTT7=
EXTT8=
EXTT9=
EXTT10=
EXTT11=
EXTT12=
EXTT13=
EXTT14=
PLAYORDER=
